<?xml version="1.0" encoding="utf-8"?>
<!-- Generator: Adobe Illustrator 19.2.1, SVG Export Plug-In . SVG Version: 6.00 Build 0)  -->
<svg version="1.1" id="Layer_1" xmlns="http://www.w3.org/2000/svg" xmlns:xlink="http://www.w3.org/1999/xlink" x="0px" y="0px"
	 viewBox="0 0 960 560" style="enable-background:new 0 0 960 560;" xml:space="preserve">
<style type="text/css">
	.st0{fill:#FFFFFF;stroke:#000000;stroke-width:2;stroke-miterlimit:10;}
	.st1{font-family:'MyriadPro-Regular';}
	.st2{font-size:12px;}
	.st3{fill:none;}
	.st4{font-family:'MyriadPro-Bold';}
	.st5{font-size:25px;}
	.st6{fill:none;stroke:#000000;stroke-width:2;stroke-miterlimit:10;}
	.st7{font-size:10px;}
	.st8{font-size:21px;}
	.st9{font-size:15.2618px;}
</style>
<rect x="172" y="82.6" class="st0" width="518.1" height="354.3"/>
<rect x="383.8" y="248.8" class="st0" width="96.2" height="22.8"/>
<rect x="330.2" y="208.6" class="st0" width="201.6" height="29.9"/>
<text transform="matrix(1 0 0 1 369.6064 223.5825)" class="st1 st2">enter an organization </text>
<rect x="193.3" y="104.4" class="st3" width="163" height="36.2"/>
<text transform="matrix(1 0 0 1 193.2915 122.1357)" class="st4 st5">Lobby Lister</text>
<rect x="405" y="254.6" class="st3" width="63.1" height="12.3"/>
<text transform="matrix(1 0 0 1 411.563 263.0186)" class="st4 st2">search</text>
<rect x="195.7" y="388.6" class="st6" width="470.9" height="33.3"/>
<rect x="184" y="93" class="st6" width="490.1" height="43.2"/>
<rect x="555.2" y="104.4" class="st6" width="75.6" height="16.2"/>
<rect x="542.2" y="109.1" class="st3" width="104.6" height="8.7"/>
<text transform="matrix(1 0 0 1 567.8008 116.1953)" class="st1 st7">login/signup</text>
<rect x="22.7" y="13.8" class="st3" width="377.4" height="51.8"/>
<text transform="matrix(1 0 0 1 22.6748 28.6655)" class="st1 st8">Landing Page</text>
<polygon class="st3" points="589.5,185.3 269.4,185.3 275.3,153.6 595.4,153.6 "/>
<text transform="matrix(0.9828 0 -0.1844 0.9828 338.4399 164.2919)" class="st1 st9">Who is paying who to do what</text>
</svg>
