<?xml version="1.0" encoding="utf-8"?>
<!-- Generator: Adobe Illustrator 19.2.1, SVG Export Plug-In . SVG Version: 6.00 Build 0)  -->
<svg version="1.1" id="Layer_1" xmlns="http://www.w3.org/2000/svg" xmlns:xlink="http://www.w3.org/1999/xlink" x="0px" y="0px"
	 viewBox="0 0 960 560" style="enable-background:new 0 0 960 560;" xml:space="preserve">
<style type="text/css">
	.st0{fill:#FFFFFF;stroke:#000000;stroke-width:2;stroke-miterlimit:10;}
	.st1{fill:none;}
	.st2{font-family:'MyriadPro-Bold';}
	.st3{font-size:25px;}
	.st4{fill:none;stroke:#000000;stroke-width:2;stroke-miterlimit:10;}
	.st5{font-family:'MyriadPro-Regular';}
	.st6{font-size:10px;}
	.st7{font-size:21px;}
	.st8{font-size:16px;}
	.st9{font-size:7px;}
	.st10{font-size:14px;}
</style>
<rect x="165" y="86.3" class="st0" width="518.1" height="354.3"/>
<rect x="186.3" y="108.1" class="st1" width="163" height="36.2"/>
<text transform="matrix(1 0 0 1 186.2915 125.8098)" class="st2 st3">Lobby Lister</text>
<rect x="188.7" y="392.3" class="st4" width="470.9" height="33.3"/>
<rect x="177" y="96.6" class="st4" width="490.1" height="43.2"/>
<rect x="548.2" y="108.1" class="st4" width="75.6" height="16.2"/>
<rect x="535.2" y="112.8" class="st1" width="104.6" height="8.7"/>
<text transform="matrix(1 0 0 1 560.8008 119.8689)" class="st5 st6">login/signup</text>
<rect x="15.7" y="17.4" class="st1" width="377.4" height="51.8"/>
<text transform="matrix(1 0 0 1 15.6748 32.3396)" class="st5 st7">Search Return Page</text>
<rect x="345.6" y="155.9" class="st1" width="148.8" height="26.4"/>
<text transform="matrix(1 0 0 1 386.4404 167.2607)" class="st5 st8">ie. Google</text>
<rect x="225.8" y="199.7" class="st0" width="123.5" height="35.5"/>
<rect x="225.8" y="255.9" class="st0" width="123.5" height="36.4"/>
<rect x="225.8" y="315.4" class="st0" width="123.5" height="39.7"/>
<rect x="362.8" y="197.7" class="st0" width="123.5" height="35.5"/>
<rect x="362.8" y="253.9" class="st0" width="123.5" height="36.4"/>
<rect x="362.8" y="313.4" class="st0" width="123.5" height="39.7"/>
<rect x="500.8" y="197.7" class="st0" width="123.5" height="35.5"/>
<rect x="500.8" y="253.9" class="st0" width="123.5" height="36.4"/>
<rect x="500.8" y="313.4" class="st0" width="123.5" height="39.7"/>
<rect x="314.2" y="217.5" class="st4" width="26.4" height="11.2"/>
<rect x="593.2" y="217.5" class="st4" width="26.4" height="11.2"/>
<rect x="455.2" y="217.5" class="st4" width="26.4" height="11.2"/>
<rect x="314.2" y="274.4" class="st4" width="26.4" height="11.2"/>
<rect x="314.2" y="335.2" class="st4" width="26.4" height="11.2"/>
<rect x="455.2" y="274.4" class="st4" width="26.4" height="11.2"/>
<rect x="455.2" y="335.2" class="st4" width="26.4" height="11.2"/>
<rect x="593.2" y="274.4" class="st4" width="26.4" height="11.2"/>
<rect x="593.2" y="335.2" class="st4" width="26.4" height="11.2"/>
<rect x="317.4" y="220.1" class="st1" width="20.1" height="5.7"/>
<text transform="matrix(1 0 0 1 320.9668 225.0576)" class="st5 st9">save</text>
<rect x="316.8" y="277.1" class="st1" width="21.2" height="5.7"/>
<text transform="matrix(1 0 0 1 320.895 282.0479)" class="st5 st9">save</text>
<rect x="458.4" y="220.2" class="st1" width="20.5" height="5.7"/>
<text transform="matrix(1 0 0 1 462.0928 225.2051)" class="st5 st9">save</text>
<rect x="457.6" y="277" class="st1" width="21.7" height="5.8"/>
<text transform="matrix(1 0 0 1 461.9316 281.9912)" class="st5 st9">save</text>
<rect x="595.8" y="220" class="st1" width="21.4" height="6.1"/>
<text transform="matrix(1 0 0 1 600.043 224.9233)" class="st5 st9">save</text>
<rect x="596.2" y="277.3" class="st1" width="20.5" height="5.3"/>
<text transform="matrix(1 0 0 1 599.9258 282.2598)" class="st5 st9">save</text>
<rect x="596.1" y="338" class="st1" width="20.4" height="5.3"/>
<text transform="matrix(1 0 0 1 599.751 342.9893)" class="st5 st9">save</text>
<rect x="457.4" y="337.9" class="st1" width="22.2" height="6"/>
<text transform="matrix(1 0 0 1 462.0269 342.9014)" class="st5 st9">save</text>
<rect x="316.8" y="337.6" class="st1" width="20.8" height="6"/>
<text transform="matrix(1 0 0 1 320.6665 342.5342)" class="st5 st9">save</text>
<rect x="195.4" y="399.3" class="st1" width="74.7" height="15.2"/>
<text transform="matrix(1 0 0 1 213.5908 409.2734)" class="st5 st10">Footer</text>
</svg>
