<?xml version="1.0" encoding="utf-8"?>
<!-- Generator: Adobe Illustrator 19.2.1, SVG Export Plug-In . SVG Version: 6.00 Build 0)  -->
<svg version="1.1" id="Layer_1" xmlns="http://www.w3.org/2000/svg" xmlns:xlink="http://www.w3.org/1999/xlink" x="0px" y="0px"
	 viewBox="0 0 960 560" style="enable-background:new 0 0 960 560;" xml:space="preserve">
<style type="text/css">
	.st0{fill:#FFFFFF;stroke:#000000;stroke-width:2;stroke-miterlimit:10;}
	.st1{fill:none;}
	.st2{font-family:'MyriadPro-Bold';}
	.st3{font-size:25px;}
	.st4{fill:none;stroke:#000000;stroke-width:2;stroke-miterlimit:10;}
	.st5{font-family:'MyriadPro-Regular';}
	.st6{font-size:10px;}
	.st7{font-size:21px;}
	.st8{font-size:16px;}
	.st9{font-size:6px;}
	.st10{font-size:14px;}
</style>
<rect x="185" y="94.3" class="st0" width="518.1" height="354.3"/>
<rect x="206.3" y="116.1" class="st1" width="163" height="36.2"/>
<text transform="matrix(1 0 0 1 206.2915 133.8098)" class="st2 st3">Lobby Lister</text>
<rect x="208.7" y="400.3" class="st4" width="470.9" height="33.3"/>
<rect x="197" y="104.6" class="st4" width="490.1" height="43.2"/>
<rect x="568.2" y="116.1" class="st4" width="75.6" height="16.2"/>
<rect x="555.2" y="120.8" class="st1" width="104.6" height="8.7"/>
<text transform="matrix(1 0 0 1 591.7451 127.8689)" class="st5 st6">LogOut</text>
<rect x="35.7" y="25.4" class="st1" width="377.4" height="51.8"/>
<text transform="matrix(1 0 0 1 35.6748 40.3396)" class="st5 st7">User Page</text>
<rect x="365.6" y="163.9" class="st1" width="148.8" height="26.4"/>
<text transform="matrix(1 0 0 1 396.5449 175.2607)" class="st5 st8">ie. John’s List</text>
<rect x="245.8" y="207.7" class="st0" width="123.5" height="35.5"/>
<rect x="245.8" y="263.9" class="st0" width="123.5" height="36.4"/>
<rect x="245.8" y="323.4" class="st0" width="123.5" height="39.7"/>
<rect x="382.8" y="205.7" class="st0" width="123.5" height="35.5"/>
<rect x="382.8" y="261.9" class="st0" width="123.5" height="36.4"/>
<rect x="382.8" y="321.4" class="st0" width="123.5" height="39.7"/>
<rect x="520.8" y="205.7" class="st0" width="123.5" height="35.5"/>
<rect x="520.8" y="261.9" class="st0" width="123.5" height="36.4"/>
<rect x="520.8" y="321.4" class="st0" width="123.5" height="39.7"/>
<rect x="334.2" y="225.5" class="st4" width="26.4" height="11.2"/>
<rect x="613.2" y="225.5" class="st4" width="26.4" height="11.2"/>
<rect x="475.2" y="225.5" class="st4" width="26.4" height="11.2"/>
<rect x="334.2" y="282.4" class="st4" width="26.4" height="11.2"/>
<rect x="334.2" y="343.2" class="st4" width="26.4" height="11.2"/>
<rect x="475.2" y="282.4" class="st4" width="26.4" height="11.2"/>
<rect x="475.2" y="343.2" class="st4" width="26.4" height="11.2"/>
<rect x="613.2" y="282.4" class="st4" width="26.4" height="11.2"/>
<rect x="613.2" y="343.2" class="st4" width="26.4" height="11.2"/>
<rect x="337.4" y="228.1" class="st1" width="20.1" height="5.7"/>
<text transform="matrix(1 0 0 1 337.8975 232.3477)" class="st5 st9">remove</text>
<rect x="336.8" y="285.1" class="st1" width="21.2" height="5.7"/>
<text transform="matrix(1 0 0 1 337.8262 289.3379)" class="st5 st9">remove</text>
<rect x="478.4" y="228.2" class="st1" width="20.5" height="5.7"/>
<text transform="matrix(1 0 0 1 479.0234 232.4951)" class="st5 st9">remove</text>
<rect x="477.6" y="285" class="st1" width="21.7" height="5.8"/>
<text transform="matrix(1 0 0 1 478.8623 289.2812)" class="st5 st9">remove</text>
<rect x="615.8" y="228" class="st1" width="21.4" height="6.1"/>
<text transform="matrix(1 0 0 1 616.9746 232.2134)" class="st5 st9">remove</text>
<rect x="616.2" y="285.3" class="st1" width="20.5" height="5.3"/>
<text transform="matrix(1 0 0 1 616.8574 289.5498)" class="st5 st9">remove</text>
<rect x="616.1" y="346" class="st1" width="20.4" height="5.3"/>
<text transform="matrix(1 0 0 1 616.6816 350.2793)" class="st5 st9">remove</text>
<rect x="477.4" y="345.9" class="st1" width="22.2" height="6"/>
<text transform="matrix(1 0 0 1 478.958 350.1914)" class="st5 st9">remove</text>
<rect x="336.8" y="345.6" class="st1" width="20.8" height="6"/>
<text transform="matrix(1 0 0 1 337.5977 349.8242)" class="st5 st9">remove</text>
<rect x="215.4" y="407.3" class="st1" width="74.7" height="15.2"/>
<text transform="matrix(1 0 0 1 233.5908 417.2734)" class="st5 st10">Footer</text>
</svg>
